# xmcd CD database file
#
# Track frame offsets:
#	150
#	20127
#	38199
#	56650
#	76663
#	89531
#	108972
#	125463
#	141976
#	159403
#	183113
#	199519
#	214242
#	227556
#	242460
#	259978
#	272225
#	287772
#	304393
#
# Disc length: 4478 seconds
#
# Revision: 3
# Processed by: cddbd v1.5.2PL0 Copyright (c) Steve Scherf et al.
# Submitted via: CDex 1.51
#
DISCID=0e117c13
DTITLE=Neil Diamond - The Essential Neil Diamond [CD1]
DYEAR=2002
DGENRE=Pop
TTITLE0=I Haven't Played This Song In Years
TTITLE1=You Are The Best Part Of Me
TTITLE2=Headed For The Future
TTITLE3=Heartlight
TTITLE4=Yesterday's Songs
TTITLE5=America
TTITLE6=Hello Again
TTITLE7=Love On The Rocks
TTITLE8=September Morn
TTITLE9=The American Populair Song
TTITLE10=Forever In Blue Jeans
TTITLE11=You Don't Bring Me Flowers
TTITLE12=Let Me Take You In My Arms Again
TTITLE13=Desirée
TTITLE14=Lady Oh
TTITLE15=Stargazer
TTITLE16=Beautiful Noise
TTITLE17=If You Know What I Mean
TTITLE18=Medley: Yes I Will/Lady Magdalene
EXTD=YEAR: 2002
EXTT0=
EXTT1=
EXTT2=
EXTT3=
EXTT4=
EXTT5=
EXTT6=
EXTT7=
EXTT8=
EXTT9=
EXTT10=
EXTT11=
EXTT12=
EXTT13=
EXTT14=
EXTT15=
EXTT16=
EXTT17=
EXTT18=
PLAYORDER=
